<svg xmlns="http://www.w3.org/2000/svg" width="40" height="43" fill="none"><path fill="url(#a)" d="M25.102 3.769a17.703 17.703 0 0 0-9.106.049c-3.03.815-5.733 2.4-8.034 4.71-2.33 2.336-3.928 5.068-4.756 8.12a17.79 17.79 0 0 0-.073 9.167c.78 3.05 2.32 5.745 4.574 8.009 2.284 2.291 4.983 3.85 8.02 4.63 3.024.782 6.1.757 9.136-.073 3.038-.829 5.76-2.434 8.09-4.773 2.303-2.312 3.883-5.026 4.693-8.066.81-3.034.818-6.119.026-9.17a17.447 17.447 0 0 0-4.591-8.02c-2.253-2.254-4.937-3.8-7.98-4.583Zm6.563 14.195c.28 1.082.398 2.146.373 3.21a7.775 7.775 0 0 0-2.87-1.486l-.112-.031a8.091 8.091 0 0 0-4.176.024c-1.396.375-2.624 1.095-3.688 2.163-1.08 1.084-1.813 2.332-2.191 3.738a8.08 8.08 0 0 0-.035 4.202 7.831 7.831 0 0 0 1.51 2.994 11.454 11.454 0 0 1-3.188-.358c-1.982-.509-3.677-1.493-5.184-3.005-1.48-1.486-2.447-3.176-2.956-5.168-.514-2.003-.498-3.962.05-5.983.547-2.018 1.576-3.764 3.143-5.336 1.537-1.544 3.257-2.557 5.248-3.092a11.409 11.409 0 0 1 5.95-.033c1.987.513 3.671 1.483 5.15 2.967 1.48 1.488 2.453 3.187 2.976 5.194Z"/><defs><linearGradient id="a" x1="20.414" x2="20.414" y1="3.198" y2="39.023" gradientUnits="userSpaceOnUse"><stop stop-color="#FE1969"/><stop offset="1" stop-color="#FE0289"/></linearGradient></defs></svg>