<svg width="17" height="17" fill="none" xmlns="http://www.w3.org/2000/svg"><path d="M1.08 1.071h2.791l.994 9.886a1.143 1.143 0 0 0 1.143.972h7.2a1.143 1.143 0 0 0 1.143-.778l1.52-4.571a1.141 1.141 0 0 0-.16-1.029 1.143 1.143 0 0 0-.983-.48H4.271M13.014 15.929a.571.571 0 1 1 0-1.143.571.571 0 0 1 0 1.143Z" stroke="#C4C4E5" stroke-width="1.5" stroke-linecap="round" stroke-linejoin="round"/><path d="M5.585 15.929a.571.571 0 1 1 0-1.143.571.571 0 0 1 0 1.143Z" fill="#C4C4E5" stroke="#EDEDFF" stroke-width="1.5" stroke-linecap="round" stroke-linejoin="round"/></svg>